<?xml version="1.0" encoding="utf-8"?>
<!-- Generator: Adobe Illustrator 25.2.0, SVG Export Plug-In . SVG Version: 6.00 Build 0)  -->
<svg version="1.1" id="Layer_1" xmlns="http://www.w3.org/2000/svg" xmlns:xlink="http://www.w3.org/1999/xlink" x="0px" y="0px"
	 viewBox="0 0 674.3 215.2" style="enable-background:new 0 0 674.3 215.2;" xml:space="preserve">
<style type="text/css">
	.st0{clip-path:url(#SVGID_2_);}
	.st1{display:none;fill-rule:evenodd;clip-rule:evenodd;fill:#FFFDF5;}
	.st2{fill-rule:evenodd;clip-rule:evenodd;fill:#073763;}
	.st3{enable-background:new    ;}
	.st4{fill:#073763;}
</style>
<g>
	<g>
		<g>
			<defs>
				<rect id="SVGID_1_" x="-101.3" y="-247.2" width="960" height="720"/>
			</defs>
			<clipPath id="SVGID_2_">
				<use xlink:href="#SVGID_1_"  style="overflow:visible;"/>
			</clipPath>
			<g class="st0">
				<path class="st1" d="M-101.3-247.2h960v720h-960L-101.3-247.2L-101.3-247.2z"/>
				<path class="st2" d="M25.6,123.4l41.3-93.5H103l-41.3,93.5H25.6z"/>
				<path class="st2" d="M8,93.1l14.6-32.9h102.9l-14.6,32.9H8z"/>
				<path class="st2" d="M104.4,196.4l14.6-32.9h102.9l-14.6,32.9H104.4z"/>
				<path class="st2" d="M40.8,206.6l41.3-93.5h36.1l-41.3,93.5H41.8z"/>
				<path class="st2" d="M146.2,146l41.3-93.5h36.1L182.3,146H146.2z"/>
				<path class="st2" d="M180.9,113.1V146H82.5v-32.9H180.9z"/>
				<path class="st2" d="M143.1,80.3h102.4L212,27L143.1,80.3z"/>
			</g>
		</g>
	</g>
</g>
<g class="st3">
	<path class="st4" d="M278.3,23.4h28.3c4.9,0,8.5,1.1,10.7,3.2c2.3,2.1,3.4,4.7,3.4,7.7c0,3.2-1.2,6.1-3.6,8.5
		c-2.4,2.4-6.2,4-11.5,4.7c3.1,2.1,6.9,7.9,11.2,17.4h-16.3c-1.4-3-3-6.3-4.8-9.8c-1.8-3.6-3.2-5.6-4.2-6.2c-0.9-0.6-2-0.8-3.4-0.8
		h-0.8l-4.2,16.9h-15.4L278.3,23.4z M289.4,40.3h2.9c4.9,0,8.1-0.2,9.5-0.6c1.4-0.4,2.5-1,3.2-1.9c0.7-0.9,1.1-1.8,1.1-2.6
		c0-1.1-0.4-1.9-1.3-2.5c-0.8-0.6-2.7-0.9-5.5-0.9h-7.8L289.4,40.3z"/>
	<path class="st4" d="M360.5,57.2c-2,3-4.6,5.1-7.9,6.4c-3.2,1.3-7.3,2-12.2,2c-7.1,0-12.2-1.3-15.2-4c-3-2.7-4.5-5.9-4.5-9.8
		c0-2.7,0.7-5.2,2.1-7.6c1.4-2.4,3.3-4.4,5.7-6c2.4-1.6,4.8-2.7,7.1-3.2c2.3-0.6,5.1-0.8,8.2-0.8c6.7,0,11.5,1.2,14.5,3.6
		s4.4,5.4,4.4,9c0,1.2-0.3,3.2-0.9,6h-27.5c0.4,4,2.5,6,6.5,6c2.7,0,4.8-0.9,6.4-2.7L360.5,57.2z M349,47.2c0.2-0.4,0.2-1,0.2-1.7
		c0-1.5-0.5-2.7-1.6-3.5c-1.1-0.8-2.5-1.2-4.1-1.2c-1.7,0-3.3,0.5-4.7,1.6c-1.4,1.1-2.5,2.7-3.3,4.8H349z"/>
	<path class="st4" d="M413.6,23.4l-10.7,41.5h-12.8l0.7-3l-0.1-0.1c-1.9,1.5-3.7,2.5-5.3,3.1c-1.6,0.5-3.4,0.8-5.6,0.8
		c-4.1,0-7.2-1.1-9.4-3.4c-2.2-2.3-3.2-5.3-3.2-9.1c0-5.1,1.6-9.5,4.9-13.3c3.2-3.8,7.4-5.7,12.3-5.7c5.1,0,8.9,1.6,11.5,4.7
		l3.9-15.4H413.6z M385.3,58c2.6,0,4.5-1.2,5.9-3.6c1.4-2.4,2.1-4.8,2.1-7.3c0-1.8-0.5-3.1-1.6-3.9s-2.3-1.3-3.7-1.3
		c-2,0-3.7,1.1-5.2,3.2c-1.4,2.1-2.2,4.7-2.2,7.7c0,1.7,0.4,3,1.3,3.9S383.9,58,385.3,58z"/>
	<path class="st4" d="M460.6,23.4l-10.7,41.5h-12.8l0.7-3l-0.1-0.1c-1.9,1.5-3.7,2.5-5.3,3.1c-1.6,0.5-3.4,0.8-5.6,0.8
		c-4.1,0-7.2-1.1-9.4-3.4c-2.2-2.3-3.2-5.3-3.2-9.1c0-5.1,1.6-9.5,4.9-13.3c3.2-3.8,7.4-5.7,12.3-5.7c5.1,0,8.9,1.6,11.5,4.7
		l3.9-15.4H460.6z M432.4,58c2.6,0,4.5-1.2,5.9-3.6c1.4-2.4,2.1-4.8,2.1-7.3c0-1.8-0.5-3.1-1.6-3.9s-2.3-1.3-3.7-1.3
		c-2,0-3.7,1.1-5.2,3.2c-1.4,2.1-2.2,4.7-2.2,7.7c0,1.7,0.4,3,1.3,3.9S431,58,432.4,58z"/>
	<path class="st4" d="M480.4,34.8l-7.7,30h-13.9l7.7-30H480.4z M483.3,23.4l-2,7.9h-13.8l1.9-7.9H483.3z"/>
	<path class="st4" d="M512.5,34.8l-2.1,8.2h-7.2l-2.6,10.6c-0.2,0.5-0.3,0.9-0.3,1.4c0,1.4,1.1,2,3.2,2c0.7,0,2.1-0.2,4.3-0.5
		l-2.1,8.2c-4.2,0.5-7.2,0.7-9.2,0.7c-3.9,0-6.6-0.8-8.2-2.3c-1.6-1.5-2.4-3.2-2.4-5.1c0-0.6,0.3-2.2,1-4.8l2.6-10.3h-5l2-8.2h5.1
		l1.2-4.7l15.4-6.4l-2.9,11.1H512.5z"/>
</g>
<g class="st3">
	<path class="st4" d="M317.1,104.4l-14.4,0.7c-0.3-3.6-2.7-5.4-7.2-5.4c-1.8,0-3.2,0.3-4.2,1c-1,0.7-1.5,1.4-1.5,2.3
		c0,0.7,0.4,1.3,1.2,1.9c0.8,0.6,2.7,1.4,5.6,2.3c3.8,1.2,6.8,2.3,9.2,3.4c2.4,1.1,4.3,2.5,5.8,4.2c1.5,1.7,2.2,3.9,2.2,6.4
		c0,2.4-0.8,4.7-2.4,6.7c-1.6,2.1-4,3.8-7,5.1c-3,1.3-7.4,2-13,2c-7.9,0-13.5-1.3-16.8-3.8c-3.3-2.5-5-5.8-5-9.7v-1l14.5-0.8
		c0,2.6,0.7,4.4,2.1,5.5c1.4,1.1,3.3,1.6,5.7,1.6c2.4,0,4.3-0.4,5.6-1.3c1.3-0.9,1.9-1.9,1.9-3c0-0.8-0.4-1.6-1.2-2.3
		c-0.8-0.7-2.8-1.6-6-2.5c-7.3-2.2-11.9-4.2-13.9-6.1c-1.9-1.8-2.9-4.1-2.9-6.7c0-2.4,0.8-4.5,2.4-6.5c1.6-2,3.9-3.5,7-4.6
		c3-1.1,6.7-1.6,10.9-1.6C309.1,92.2,316.2,96.3,317.1,104.4z"/>
	<path class="st4" d="M359,126.7c-2,3-4.6,5.1-7.9,6.4c-3.2,1.3-7.3,2-12.2,2c-7.1,0-12.2-1.3-15.2-4c-3-2.7-4.5-5.9-4.5-9.8
		c0-2.7,0.7-5.2,2.1-7.6c1.4-2.4,3.3-4.4,5.7-6c2.4-1.6,4.8-2.7,7.1-3.2c2.3-0.6,5.1-0.8,8.2-0.8c6.7,0,11.5,1.2,14.5,3.6
		s4.4,5.4,4.4,9c0,1.2-0.3,3.2-0.9,6h-27.5c0.4,4,2.5,6,6.5,6c2.7,0,4.8-0.9,6.4-2.7L359,126.7z M347.5,116.7c0.2-0.4,0.2-1,0.2-1.7
		c0-1.5-0.5-2.7-1.6-3.5c-1.1-0.8-2.5-1.2-4.1-1.2c-1.7,0-3.3,0.5-4.7,1.6c-1.4,1.1-2.5,2.7-3.3,4.8H347.5z"/>
	<path class="st4" d="M383.1,109c3.8-3.5,8.4-5.3,13.9-5.3c3.3,0,5.7,0.7,7.3,2.1c1.6,1.4,2.4,3.1,2.4,5.1c0,1.2-0.5,3.6-1.4,7.1
		l-4.2,16.4h-13.9l3.6-13.9c0.9-3.4,1.3-5.4,1.3-5.9c0-1.7-0.9-2.5-2.7-2.5c-2,0-3.8,0.8-5.3,2.4s-2.7,3.9-3.4,6.9l-3.4,13h-13.9
		l7.7-30h12.9l-1.2,4.5L383.1,109z"/>
	<path class="st4" d="M440.8,104.4l-2.1,8.2h-7.2l-2.6,10.6c-0.2,0.5-0.3,0.9-0.3,1.4c0,1.4,1.1,2,3.2,2c0.7,0,2.1-0.2,4.3-0.5
		l-2.1,8.2c-4.2,0.5-7.2,0.7-9.2,0.7c-3.9,0-6.6-0.8-8.2-2.3s-2.4-3.2-2.4-5.1c0-0.6,0.3-2.2,1-4.8l2.6-10.3h-5l2-8.2h5.1l1.2-4.7
		l15.4-6.4l-2.9,11.1H440.8z"/>
	<path class="st4" d="M462.8,104.4l-7.7,30h-13.9l7.7-30H462.8z M465.6,92.9l-2,7.9h-13.8l1.9-7.9H465.6z"/>
	<path class="st4" d="M506.6,108.8c2.6-2,5-3.3,7.1-4c2.1-0.7,4.4-1.1,6.9-1.1c3.3,0,5.7,0.7,7.3,2.2s2.4,3.2,2.4,5.2
		c0,1.2-0.1,2.4-0.4,3.6l-5.1,19.7h-13.9l3.3-12.8c0.8-3.3,1.3-5.2,1.4-5.8c0.1-0.6,0.1-1.1,0.1-1.3c0-1.6-0.9-2.3-2.6-2.3
		c-2.1,0-3.8,0.7-5.1,2.2s-2.4,3.7-3.2,6.8l-3.4,13.4h-13.9l3.3-12.6c0.9-3.4,1.3-5.4,1.4-6s0.2-1.1,0.2-1.4c0-1.5-0.9-2.3-2.8-2.3
		c-1.4,0-2.9,0.6-4.4,1.8c-1.6,1.2-2.7,3.2-3.4,6.1l-3.7,14.4H464l7.7-30h12.9l-1.1,4.3l0.1,0.1c4-3.4,8.4-5.1,13.3-5.1
		c2.3,0,4.3,0.4,6,1.3C504.7,105.9,505.9,107.1,506.6,108.8z"/>
	<path class="st4" d="M575.3,126.7c-2,3-4.6,5.1-7.9,6.4c-3.2,1.3-7.3,2-12.2,2c-7.1,0-12.2-1.3-15.2-4c-3-2.7-4.5-5.9-4.5-9.8
		c0-2.7,0.7-5.2,2.1-7.6c1.4-2.4,3.3-4.4,5.7-6c2.4-1.6,4.8-2.7,7.1-3.2c2.3-0.6,5.1-0.8,8.2-0.8c6.7,0,11.5,1.2,14.5,3.6
		s4.4,5.4,4.4,9c0,1.2-0.3,3.2-0.9,6h-27.5c0.4,4,2.5,6,6.5,6c2.7,0,4.8-0.9,6.4-2.7L575.3,126.7z M563.8,116.7
		c0.2-0.4,0.2-1,0.2-1.7c0-1.5-0.5-2.7-1.6-3.5c-1.1-0.8-2.5-1.2-4.1-1.2c-1.7,0-3.3,0.5-4.7,1.6c-1.4,1.1-2.5,2.7-3.3,4.8H563.8z"
		/>
	<path class="st4" d="M599.4,109c3.8-3.5,8.4-5.3,13.9-5.3c3.3,0,5.7,0.7,7.3,2.1c1.6,1.4,2.4,3.1,2.4,5.1c0,1.2-0.5,3.6-1.4,7.1
		l-4.2,16.4h-13.9l3.6-13.9c0.9-3.4,1.3-5.4,1.3-5.9c0-1.7-0.9-2.5-2.7-2.5c-2,0-3.8,0.8-5.3,2.4s-2.7,3.9-3.4,6.9l-3.4,13h-13.9
		l7.7-30h12.9l-1.2,4.5L599.4,109z"/>
	<path class="st4" d="M657.1,104.4l-2.1,8.2h-7.2l-2.6,10.6c-0.2,0.5-0.3,0.9-0.3,1.4c0,1.4,1.1,2,3.2,2c0.7,0,2.1-0.2,4.3-0.5
		l-2.1,8.2c-4.2,0.5-7.2,0.7-9.2,0.7c-3.9,0-6.6-0.8-8.2-2.3s-2.4-3.2-2.4-5.1c0-0.6,0.3-2.2,1-4.8l2.6-10.3h-5l2-8.2h5.1l1.2-4.7
		l15.4-6.4l-2.9,11.1H657.1z"/>
</g>
<g class="st3">
	<path class="st4" d="M294.6,162.5L284,204h-15.6l10.7-41.5H294.6z"/>
	<path class="st4" d="M313.6,178.6c3.8-3.5,8.4-5.3,13.9-5.3c3.3,0,5.7,0.7,7.3,2.1c1.6,1.4,2.4,3.1,2.4,5.1c0,1.2-0.5,3.6-1.4,7.1
		l-4.2,16.4h-13.9l3.6-13.9c0.9-3.4,1.3-5.4,1.3-5.9c0-1.7-0.9-2.5-2.7-2.5c-2,0-3.8,0.8-5.3,2.4s-2.7,3.9-3.4,6.9l-3.4,13H294
		l7.7-30h12.9l-1.2,4.5L313.6,178.6z"/>
	<path class="st4" d="M388.9,162.5L378.2,204h-12.8l0.7-3l-0.1-0.1c-1.9,1.5-3.7,2.5-5.3,3.1c-1.6,0.5-3.4,0.8-5.6,0.8
		c-4.1,0-7.2-1.1-9.4-3.4s-3.2-5.3-3.2-9.1c0-5.1,1.6-9.5,4.9-13.3c3.2-3.8,7.4-5.7,12.3-5.7c5.1,0,8.9,1.6,11.5,4.7l3.9-15.4H388.9
		z M360.7,197.1c2.6,0,4.5-1.2,5.9-3.6c1.4-2.4,2.1-4.8,2.1-7.3c0-1.8-0.5-3.1-1.6-3.9c-1.1-0.9-2.3-1.3-3.7-1.3
		c-2,0-3.7,1.1-5.2,3.2s-2.2,4.7-2.2,7.7c0,1.7,0.4,3,1.3,3.9C358.1,196.7,359.3,197.1,360.7,197.1z"/>
	<path class="st4" d="M428.6,196.3c-2,3-4.6,5.1-7.9,6.4c-3.2,1.3-7.3,2-12.2,2c-7.1,0-12.2-1.3-15.2-4c-3-2.7-4.5-5.9-4.5-9.8
		c0-2.7,0.7-5.2,2.1-7.6c1.4-2.4,3.3-4.4,5.7-6c2.4-1.6,4.8-2.7,7.1-3.2s5.1-0.8,8.2-0.8c6.7,0,11.5,1.2,14.5,3.7
		c2.9,2.4,4.4,5.4,4.4,9c0,1.2-0.3,3.2-0.9,6h-27.5c0.4,4,2.5,6,6.5,6c2.7,0,4.8-0.9,6.4-2.7L428.6,196.3z M417.1,186.3
		c0.2-0.4,0.2-1,0.2-1.7c0-1.5-0.5-2.7-1.6-3.5c-1.1-0.8-2.5-1.2-4.1-1.2c-1.7,0-3.3,0.5-4.7,1.6c-1.4,1.1-2.5,2.7-3.3,4.8H417.1z"
		/>
	<path class="st4" d="M481.2,174l-16.6,15.1l9.3,14.9h-14.7l-4.6-8.7l-9,8.7h-16.1l17.9-16.4l-8.6-13.7h14.7l3.8,7.4l7.7-7.4H481.2z
		"/>
</g>
</svg>