<?xml version="1.0" encoding="utf-8"?>
<!-- Generator: Adobe Illustrator 25.2.0, SVG Export Plug-In . SVG Version: 6.00 Build 0)  -->
<svg version="1.1" id="Layer_1" xmlns="http://www.w3.org/2000/svg" xmlns:xlink="http://www.w3.org/1999/xlink" x="0px" y="0px"
	 viewBox="0 0 674.3 215.2" style="enable-background:new 0 0 674.3 215.2;" xml:space="preserve">
<style type="text/css">
	.st0{clip-path:url(#SVGID_2_);}
	.st1{display:none;fill-rule:evenodd;clip-rule:evenodd;fill:#FFFDF5;}
	.st2{fill-rule:evenodd;clip-rule:evenodd;fill:#073763;}
	.st3{fill:#073763;}
	.st4{font-family:'Arial-BlackItalic';}
	.st5{font-size:57.9424px;}
</style>
<g>
	<g>
		<defs>
			<rect id="SVGID_1_" x="-101.3" y="-247.2" width="960" height="720"/>
		</defs>
		<clipPath id="SVGID_2_">
			<use xlink:href="#SVGID_1_"  style="overflow:visible;"/>
		</clipPath>
		<g class="st0">
			<path class="st1" d="M-101.3-247.2h960v720h-960V-247.2z"/>
			<path class="st2" d="M25.6,123.4l41.3-93.5H103l-41.3,93.5H25.6z"/>
			<path class="st2" d="M8,93.1l14.6-32.9h102.9l-14.6,32.9H8z"/>
			<path class="st2" d="M104.4,196.4l14.6-32.9h102.9l-14.6,32.9H104.4z"/>
			<path class="st2" d="M41.8,206.6l41.3-93.5h36.1l-41.3,93.5H41.8z"/>
			<path class="st2" d="M146.2,146l41.3-93.5h36.1L182.3,146H146.2z"/>
			<path class="st2" d="M180.9,113.1V146H82.5v-32.9H180.9z"/>
			<path class="st2" d="M143.1,80.3h102.4L212,27L143.1,80.3z"/>
		</g>
	</g>
</g>
<text transform="matrix(1.2 0 0 1 264.8623 64.8679)" class="st3 st4 st5">Reddit</text>
<text transform="matrix(1.2 0 0 1 264.8623 134.3679)" class="st3 st4 st5">Sentiment</text>
<text transform="matrix(1.2 0 0 1 264.8623 203.9684)" class="st3 st4 st5">Index</text>
</svg>
