<svg version="1.1" viewBox="0.0 0.0 288.0 288.0" fill="none" stroke="none" stroke-linecap="square" stroke-miterlimit="10" xmlns:xlink="http://www.w3.org/1999/xlink" xmlns="http://www.w3.org/2000/svg"><clipPath id="p.0"><path d="m0 0l288.0 0l0 288.0l-288.0 0l0 -288.0z" clip-rule="nonzero"/></clipPath><g clip-path="url(#p.0)"><path fill="#000000" fill-opacity="0.0" d="m0 0l288.0 0l0 288.0l-288.0 0z" fill-rule="evenodd"/><path fill="#073763" d="m42.884354 150.58922l41.26198 -93.48752l36.098907 0l-41.26198 93.48752z" fill-rule="evenodd"/><path fill="#073763" d="m25.285238 120.28255l14.5534 -32.874184l102.89754 0l-14.553406 32.874184z" fill-rule="evenodd"/><path fill="#073763" d="m58.41169 233.80402l41.26197 -93.48753l36.098907 0l-41.26197 93.48753z" fill-rule="evenodd"/><path fill="#073763" d="m163.47786 173.19067l41.261963 -93.487526l36.098907 0l-41.261963 93.487526z" fill-rule="evenodd"/><path fill="#073763" d="m198.18962 140.31648l0 32.87419l-98.42116 0l0 -32.87419z" fill-rule="evenodd"/><path fill="#073763" d="m160.3474 107.47688l102.366135 0l-33.545425 -53.280003z" fill-rule="evenodd"/></g></svg>