<svg version="1.1" viewBox="0.0 0.0 288.0 288.0" fill="none" stroke="none" stroke-linecap="square" stroke-miterlimit="10" xmlns:xlink="http://www.w3.org/1999/xlink" xmlns="http://www.w3.org/2000/svg"><clipPath id="p.0"><path d="m0 0l288.0 0l0 288.0l-288.0 0l0 -288.0z" clip-rule="nonzero"/></clipPath><g clip-path="url(#p.0)"><path fill="#000000" fill-opacity="0.0" d="m0 0l288.0 0l0 288.0l-288.0 0z" fill-rule="evenodd"/><path fill="#073763" d="m181.51181 163.22047l0 32.88188l-81.259834 0l0 -32.88188z" fill-rule="evenodd"/><path fill="#073763" d="m120.52231 272.98425l47.43602 -109.76378l36.658463 0l-47.436005 109.76378z" fill-rule="evenodd"/><path fill="#073763" d="m44.52951 140.90681l14.556812 -32.88188l167.55342 0l-14.556808 32.88188z" fill-rule="evenodd"/><path fill="#073763" d="m44.529316 140.90681l47.436016 -109.76377l36.658478 0l-47.436028 109.76377z" fill-rule="evenodd"/><path fill="#073763" d="m174.39133 140.90681l32.10527 -74.425186l38.22545 0l-32.10527 74.425186z" fill-rule="evenodd"/><path fill="#073763" d="m85.62016 45.604763l14.556808 -32.88189l95.427444 0l-14.556824 32.88189z" fill-rule="evenodd"/><path fill="#073763" d="m142.73674 80.943344l14.556808 -32.881886l95.427444 0l-14.556808 32.881886z" fill-rule="evenodd"/><path fill="#073763" d="m145.64087 75.13364l26.781906 -62.551186l37.753525 0l-26.781921 62.551186z" fill-rule="evenodd"/><path fill="#073763" d="m79.22422 196.10367l32.105263 -74.42519l38.22545 0l-32.10527 74.42519z" fill-rule="evenodd"/></g></svg>