<svg version="1.1" viewBox="0.0 0.0 169.0288713910761 163.14435695538057" fill="none" stroke="none" stroke-linecap="square" stroke-miterlimit="10" xmlns:xlink="http://www.w3.org/1999/xlink" xmlns="http://www.w3.org/2000/svg"><clipPath id="p.0"><path d="m0 0l169.02887 0l0 163.14436l-169.02887 0l0 -163.14436z" clip-rule="nonzero"/></clipPath><g clip-path="url(#p.0)"><path fill="#000000" fill-opacity="0.0" d="m0 0l169.02887 0l0 163.14436l-169.02887 0z" fill-rule="evenodd"/><path fill="#000000" fill-opacity="0.0" d="m22.120735 68.973755l0 0c0 -27.501171 22.294106 -49.795277 49.795273 -49.795277l0 0c13.206528 0 25.872154 5.246273 35.21058 14.584698c9.338425 9.338425 14.584702 22.004047 14.584702 35.21058l0 0c0 27.501167 -22.294106 49.795273 -49.79528 49.795273l0 0c-27.501167 0 -49.795273 -22.294106 -49.795273 -49.795273z" fill-rule="evenodd"/><path stroke="#073763" stroke-width="24.0" stroke-linejoin="round" stroke-linecap="butt" d="m22.120735 68.973755l0 0c0 -27.501171 22.294106 -49.795277 49.795273 -49.795277l0 0c13.206528 0 25.872154 5.246273 35.21058 14.584698c9.338425 9.338425 14.584702 22.004047 14.584702 35.21058l0 0c0 27.501167 -22.294106 49.795273 -49.79528 49.795273l0 0c-27.501167 0 -49.795273 -22.294106 -49.795273 -49.795273z" fill-rule="evenodd"/><path fill="#000000" fill-opacity="0.0" d="m107.12659 104.18433l39.779526 39.77952" fill-rule="evenodd"/><path stroke="#073763" stroke-width="24.0" stroke-linejoin="round" stroke-linecap="butt" d="m107.12659 104.18433l39.779526 39.77952" fill-rule="evenodd"/></g></svg>